<svg xmlns="http://www.w3.org/2000/svg" xmlns:xlink="http://www.w3.org/1999/xlink" width="85" height="85" viewBox="0 0 85 85">
  <defs>
    <clipPath id="clip-path">
      <rect id="Rectangle_514" data-name="Rectangle 514" width="85" height="85" transform="translate(791 1260)"/>
    </clipPath>
  </defs>
  <g id="cashback-icon" transform="translate(-791 -1260)" clip-path="url(#clip-path)">
    <g id="cashback-data1" transform="translate(790 1259)">
      <path id="Path_1081" data-name="Path 1081" d="M16,12h7.158V37.052H16Z" transform="translate(-1.474 -1.053)" fill="#dfdddc"/>
      <path id="Path_1082" data-name="Path 1082" d="M59.789,23.526A2.684,2.684,0,0,0,57.1,20.842a2.684,2.684,0,0,0,0-5.368H37.421V11H30.263l-2.684,2.684H24V35.158l3.579,1.789H57.1a2.684,2.684,0,0,0,0-5.368,2.684,2.684,0,0,0,0-5.368A2.684,2.684,0,0,0,59.789,23.526Z" transform="translate(-2.316 -0.947)" fill="#fce8cb"/>
      <path id="Path_1083" data-name="Path 1083" d="M56.857,40A30.906,30.906,0,0,1,70.7,76.185l-.687,2.13a3.344,3.344,0,0,0,.819,3.393,3.346,3.346,0,0,1-2.367,5.712H26.589a3.346,3.346,0,0,1-2.366-5.712,3.348,3.348,0,0,0,.819-3.393l-.687-2.13A30.9,30.9,0,0,1,38.2,40Z" transform="translate(-2.196 -4.001)" fill="#4a57c7"/>
      <path id="Path_1084" data-name="Path 1084" d="M81.1,66.579,77.526,63H65a2.684,2.684,0,0,0,0,5.368H50.684a2.684,2.684,0,1,0,0,5.368,2.684,2.684,0,0,0,0,5.368,2.684,2.684,0,0,0,0,5.368,2.684,2.684,0,0,0,0,5.368H81.1l3.579-1.789h3.579V66.579Z" transform="translate(-4.843 -6.422)" fill="#fce8cb"/>
      <path id="Path_1085" data-name="Path 1085" d="M54.56,14.631V10.158l4.1-4.1A1.789,1.789,0,0,0,57.4,3H35.617a1.789,1.789,0,0,0-1.265,3.055l4.1,4.1v4.474Z" transform="translate(-3.35 -0.105)" fill="#4a57c7"/>
      <path id="Path_1086" data-name="Path 1086" d="M4,12H14.737V37.052H4Z" transform="translate(-0.211 -1.053)" fill="#949393"/>
      <path id="Path_1087" data-name="Path 1087" d="M82.156,26.717a7.16,7.16,0,0,1-5.439,5.439.171.171,0,0,0,0,.336,7.16,7.16,0,0,1,5.439,5.439.171.171,0,0,0,.336,0,7.16,7.16,0,0,1,5.439-5.439.171.171,0,0,0,0-.336,7.16,7.16,0,0,1-5.439-5.439A.171.171,0,0,0,82.156,26.717Z" transform="translate(-7.851 -2.587)" fill="#fd0"/>
      <path id="Path_1088" data-name="Path 1088" d="M10.156,78.717a7.16,7.16,0,0,1-5.439,5.439.171.171,0,0,0,0,.336,7.16,7.16,0,0,1,5.439,5.439.171.171,0,0,0,.336,0,7.16,7.16,0,0,1,5.439-5.439.171.171,0,0,0,0-.336,7.16,7.16,0,0,1-5.439-5.439.171.171,0,0,0-.336,0Z" transform="translate(-0.271 -8.062)" fill="#fd0"/>
      <path id="Path_1089" data-name="Path 1089" d="M39,11H55.1v4.474H39Z" transform="translate(-3.895 -0.947)" fill="#fd0"/>
      <circle id="Ellipse_155" data-name="Ellipse 155" cx="1" cy="1" r="1" transform="translate(17.157 13.157)"/>
      <path id="Path_1090" data-name="Path 1090" d="M83.525,59.262H76.738l-3.317-3.317a.891.891,0,0,0-.633-.262H70.2a31.836,31.836,0,0,0-13.305-19.4,3.556,3.556,0,0,0,.343-5.651,3.532,3.532,0,0,0,0-5.368,3.532,3.532,0,0,0,0-5.368,3.564,3.564,0,0,0-2.342-6.263H52.21V10.423l3.841-3.841a2.643,2.643,0,0,0,.582-2.925A2.641,2.641,0,0,0,54.153,2H32.372a2.641,2.641,0,0,0-2.479,1.657,2.643,2.643,0,0,0,.582,2.925L33.05,9.158h-5a.891.891,0,0,0-.633.262L25,11.842H22.684v-.895a.894.894,0,0,0-.895-.895H3.895A.894.894,0,0,0,3,10.947V36a.894.894,0,0,0,.895.895H21.789A.894.894,0,0,0,22.684,36v-.342L24.968,36.8a.886.886,0,0,0,.4.095h5.368a.895.895,0,0,0,0-1.789H25.579l-3.39-1.7a.895.895,0,0,0-1.295.8V35.1H15.526V11.842h5.368V30.631a.895.895,0,0,0,1.789,0v-17h2.684A.891.891,0,0,0,26,13.369l2.422-2.422h5.893v2.684h-.895a.895.895,0,0,0,0,1.789H54.894a1.789,1.789,0,0,1,0,3.579H37a.895.895,0,0,0,0,1.789H54.894a1.789,1.789,0,0,1,0,3.579H37a.895.895,0,0,0,0,1.789H54.894a1.789,1.789,0,0,1,0,3.579H37a.895.895,0,0,0,0,1.789H54.894a1.789,1.789,0,0,1,0,3.579H36.1c-.02,0-.037.01-.056.012a.874.874,0,0,0-.172.035.847.847,0,0,0-.17.058c-.017.009-.036.008-.053.018A31.992,31.992,0,0,0,21.412,72.459l.687,2.131a2.441,2.441,0,0,1-.6,2.486,4.24,4.24,0,0,0,3,7.238H40.578a.895.895,0,0,0,0-1.789H24.5a2.451,2.451,0,0,1-1.732-4.184,4.223,4.223,0,0,0,1.037-4.3l-.687-2.131A30.192,30.192,0,0,1,36.357,36.894H54.515A30.04,30.04,0,0,1,68.363,55.683h-8.1a3.582,3.582,0,0,0-3.579,3.579,3.542,3.542,0,0,0,.5,1.789H45.947A3.564,3.564,0,0,0,43.6,67.315a3.551,3.551,0,0,0-.187,5.214c.058.058.126.1.188.155a3.55,3.55,0,0,0-.188,5.214c.058.058.126.1.188.155a3.569,3.569,0,0,0,2.341,6.263H76.367a.9.9,0,0,0,.4-.094l3.39-1.7h3.368a.894.894,0,0,0,.895-.895V60.157A.894.894,0,0,0,83.525,59.262ZM13.737,35.1H4.789V11.842h8.947ZM50.42,13.631H36.1V11.842H50.42Zm0-3.579H36.1a.906.906,0,0,0-.263-.633l-4.1-4.1a.894.894,0,0,1,.633-1.527H54.153a.894.894,0,0,1,.633,1.527l-4.1,4.1a.9.9,0,0,0-.262.633ZM82.63,80.736H79.946a.9.9,0,0,0-.4.094l-3.39,1.7H45.947a1.789,1.789,0,0,1,0-3.579H64.736a.895.895,0,0,0,0-1.789H45.947a1.789,1.789,0,0,1,0-3.579H64.736a.895.895,0,0,0,0-1.789H45.947a1.789,1.789,0,0,1,0-3.579H64.736a.895.895,0,0,0,0-1.789H45.947a1.789,1.789,0,0,1,0-3.579H68.315a.895.895,0,0,0,0-1.789H60.262a1.789,1.789,0,1,1,0-3.579H72.418l3.317,3.317a.892.892,0,0,0,.633.262H82.63Z" transform="translate(-0.105)"/>
      <circle id="Ellipse_156" data-name="Ellipse 156" cx="1" cy="1" r="1" transform="translate(51.157 49.157)" fill="#fff"/>
      <circle id="Ellipse_157" data-name="Ellipse 157" cx="1" cy="1" r="1" transform="translate(37.157 49.157)" fill="#fff"/>
      <path id="Path_1091" data-name="Path 1091" d="M81.158,39.21a.895.895,0,0,0,1.789,0,6.271,6.271,0,0,1,6.263-6.263.895.895,0,1,0,0-1.789,6.271,6.271,0,0,1-6.263-6.263.895.895,0,0,0-1.789,0,6.271,6.271,0,0,1-6.263,6.263.895.895,0,1,0,0,1.789A6.271,6.271,0,0,1,81.158,39.21Zm.895-10.628a8.1,8.1,0,0,0,3.471,3.471,8.1,8.1,0,0,0-3.471,3.471,8.1,8.1,0,0,0-3.471-3.471A8.1,8.1,0,0,0,82.052,28.582Z" transform="translate(-7.58 -2.316)"/>
      <path id="Path_1092" data-name="Path 1092" d="M9.158,91.21a.895.895,0,0,0,1.789,0,6.271,6.271,0,0,1,6.263-6.263.895.895,0,0,0,0-1.789,6.271,6.271,0,0,1-6.263-6.263.895.895,0,0,0-1.789,0,6.271,6.271,0,0,1-6.263,6.263.895.895,0,1,0,0,1.789A6.271,6.271,0,0,1,9.158,91.21Zm.895-10.628a8.1,8.1,0,0,0,3.471,3.471,8.1,8.1,0,0,0-3.471,3.471,8.1,8.1,0,0,0-3.471-3.471A8.1,8.1,0,0,0,10.052,80.582Z" transform="translate(0 -7.791)"/>
      <path id="Path_1093" data-name="Path 1093" d="M58.895,64.158a.894.894,0,0,0,.895-.895,4.479,4.479,0,0,1,4.474-4.474.895.895,0,0,0,0-1.789A6.271,6.271,0,0,0,58,63.263.894.894,0,0,0,58.895,64.158Z" transform="translate(-5.896 -5.79)" fill="#fff"/>
      <circle id="Ellipse_158" data-name="Ellipse 158" cx="1" cy="1" r="1" transform="translate(32.157 79.157)" fill="#fff"/>
      <ellipse id="Ellipse_159" data-name="Ellipse 159" cx="0.5" cy="1" rx="0.5" ry="1" transform="translate(29.157 79.157)" fill="#fff"/>
      <circle id="Ellipse_160" data-name="Ellipse 160" cx="1" cy="1" r="1" transform="translate(25.157 79.157)" fill="#fff"/>
    </g>
  </g>
</svg>
