<svg xmlns="http://www.w3.org/2000/svg" xmlns:xlink="http://www.w3.org/1999/xlink" width="85" height="85" viewBox="0 0 85 85">
  <defs>
    <clipPath id="clip-path">
      <rect id="Rectangle_513" data-name="Rectangle 513" width="85" height="85" transform="translate(1138 1067)"/>
    </clipPath>
  </defs>
  <g id="reward-icon" transform="translate(-1138 -1067)" clip-path="url(#clip-path)">
    <g id="reward-data" transform="translate(1125.346 1053.093)">
      <path id="Path_1024" data-name="Path 1024" d="M141.52,155.637a3.523,3.523,0,0,0-1.794.4l-12.209,6.359H108.186a22.338,22.338,0,0,0-11.9,3.434l-2.721,1.71a6.539,6.539,0,0,1-3.482,1h-.346V171.4h.006v5.356h-.006v3.281l25.92-.8a12.233,12.233,0,0,0,6.192-2.165l21.544-16.564a2.2,2.2,0,0,0,.953-1.841,3,3,0,0,0-2.823-3.038Z" transform="translate(-47.766 -89.53)" fill="#fce8cb"/>
      <path id="Path_1025" data-name="Path 1025" d="M140.592,154.137a4.053,4.053,0,0,0-2.071.458l-12.09,6.3h-19.2a22.856,22.856,0,0,0-12.194,3.518l-2.722,1.71a5.982,5.982,0,0,1-3.191.92H88.78a.545.545,0,0,0-.546.546v2.863a.545.545,0,0,0,.546.546h.034a.546.546,0,0,0,.517-.545.536.536,0,0,0-.006-.08v-2.24a7.069,7.069,0,0,0,3.571-1.085l2.722-1.71a21.766,21.766,0,0,1,11.613-3.35h19.332a.548.548,0,0,0,.252-.061l12.209-6.359a3,3,0,0,1,1.518-.336,2.456,2.456,0,0,1,2.3,2.478,1.668,1.668,0,0,1-.74,1.423L120.58,175.678a11.68,11.68,0,0,1-5.9,2.067l-25.358.78v-2.638a.532.532,0,0,0,.006-.08.546.546,0,0,0-.516-.545.538.538,0,0,0-.581.545v3.281a.546.546,0,0,0,.546.546H88.8l25.939-.8a12.8,12.8,0,0,0,6.489-2.276l21.523-16.548a2.749,2.749,0,0,0,1.187-2.275,3.567,3.567,0,0,0-3.343-3.6Z" transform="translate(-46.812 -88.576)" fill="#3a312a"/>
      <path id="Path_1026" data-name="Path 1026" d="M157.574,174.4a.546.546,0,1,0-1.01.414,2.793,2.793,0,0,1-.994,2.967,9.349,9.349,0,0,1-3.434,1.553c-2.63.785-5.015,1.269-7.54,1.781-2.439.495-4.961,1.006-8.073,1.845a.546.546,0,0,0,.142,1.073.553.553,0,0,0,.143-.019c3.078-.83,5.583-1.338,8.006-1.829,2.549-.517,4.958-1.006,7.635-1.8a10.182,10.182,0,0,0,3.831-1.77A3.857,3.857,0,0,0,157.574,174.4Z" transform="translate(-77.277 -101.255)" fill="#3a312a"/>
      <path id="Path_1027" data-name="Path 1027" d="M16.154,175.2H33.343v23.427H16.154Z" transform="translate(-0.954 -101.976)" fill="#4a57c7"/>
      <path id="Path_1028" data-name="Path 1028" d="M32.389,173.7H15.2a.545.545,0,0,0-.546.546v23.427a.545.545,0,0,0,.546.546h4.72a.546.546,0,0,0,0-1.091H15.745V174.787h16.1v22.336H24.919a.546.546,0,0,0,0,1.091h7.47a.545.545,0,0,0,.546-.546V174.242A.546.546,0,0,0,32.389,173.7Z" transform="translate(0 -101.022)" fill="#3a312a"/>
      <path id="Path_1029" data-name="Path 1029" d="M70.077,175.2H63.4v23.427h6.673a2.907,2.907,0,0,0,2.907-2.907V178.1A2.907,2.907,0,0,0,70.077,175.2Z" transform="translate(-31.015 -101.976)" fill="#949393"/>
      <path id="Path_1030" data-name="Path 1030" d="M72.03,183.441a.545.545,0,0,0,.546-.546v-5.747a3.457,3.457,0,0,0-3.453-3.453H62.45a.545.545,0,0,0-.546.546v23.427a.545.545,0,0,0,.546.546h6.673a3.457,3.457,0,0,0,3.453-3.453v-6.511a.546.546,0,1,0-1.091,0v6.511a2.364,2.364,0,0,1-2.361,2.361H63V174.787h6.127a2.364,2.364,0,0,1,2.361,2.361V182.9A.546.546,0,0,0,72.03,183.441Z" transform="translate(-30.061 -101.022)" fill="#3a312a"/>
      <circle id="Ellipse_153" data-name="Ellipse 153" cx="2.193" cy="2.193" r="2.193" transform="matrix(0.987, -0.16, 0.16, 0.987, 34.646, 89.972)" fill="#fd0"/>
      <path id="Path_1031" data-name="Path 1031" d="M71.781,218.709a2.739,2.739,0,1,0,2.739,2.739A2.742,2.742,0,0,0,71.781,218.709Zm0,4.386a1.647,1.647,0,1,1,1.647-1.647A1.649,1.649,0,0,1,71.781,223.095Z" transform="translate(-34.602 -129.66)" fill="#3a312a"/>
      <path id="Path_1032" data-name="Path 1032" d="M177.886,157.138a2.978,2.978,0,0,0-1.521.335l-1.535.8a2.389,2.389,0,0,1,.382,1.342,1.658,1.658,0,0,1-.739,1.422l-21.526,16.549a16.157,16.157,0,0,1-6.019,2.223l5.1-.156a11.642,11.642,0,0,0,5.893-2.066l21.526-16.549a1.667,1.667,0,0,0,.739-1.422A2.452,2.452,0,0,0,177.886,157.138Z" transform="translate(-84.154 -90.486)" fill="#decaad"/>
      <path id="Path_1033" data-name="Path 1033" d="M39.66,26.393c-.354,4.207-4.738,4.871-4.738,4.871,3.764.177,4.7,5.115,4.7,5.115.08-3.52,4.846-5.167,4.846-5.167-3.57-.214-4.81-4.819-4.81-4.819Z" transform="translate(-12.895 -7.307)" fill="#fd0"/>
      <path id="Path_1034" data-name="Path 1034" d="M43.549,29.714c-3.13-.187-4.3-4.374-4.316-4.417a.546.546,0,0,0-1.07.1c-.313,3.717-4.116,4.353-4.276,4.378a.546.546,0,0,0,.056,1.085c3.284.154,4.183,4.627,4.192,4.672a.546.546,0,0,0,.536.443l.046,0a.546.546,0,0,0,.5-.531c.071-3.1,4.435-4.648,4.479-4.663a.546.546,0,0,0-.146-1.061Zm-4.935,3.764a6.359,6.359,0,0,0-2.76-3.229,5.858,5.858,0,0,0,2.984-3.009,6.662,6.662,0,0,0,3.032,3.173A7.751,7.751,0,0,0,38.613,33.478Z" transform="translate(-11.94 -6.354)" fill="#0d0d0d"/>
      <path id="Path_1035" data-name="Path 1035" d="M20.387,43.374c-.251,2.975-3.351,3.445-3.351,3.445,2.662.125,3.326,3.618,3.326,3.618.057-2.49,3.428-3.654,3.428-3.654-2.525-.151-3.4-3.408-3.4-3.408Z" transform="translate(-1.515 -18.111)" fill="#fd0"/>
      <path id="Path_1036" data-name="Path 1036" d="M22.869,45.283c-2.1-.126-2.9-2.978-2.908-3.007a.546.546,0,0,0-1.07.1A3.418,3.418,0,0,1,16,45.325a.546.546,0,0,0,.056,1.085c2.2.1,2.81,3.145,2.815,3.174a.546.546,0,0,0,.536.444l.045,0a.546.546,0,0,0,.5-.532c.047-2.077,3.031-3.141,3.061-3.151a.546.546,0,0,0-.146-1.06Zm-3.487,2.472a4.665,4.665,0,0,0-1.618-1.921,4.353,4.353,0,0,0,1.772-1.788,4.875,4.875,0,0,0,1.8,1.9A5.7,5.7,0,0,0,19.381,47.755Z" transform="translate(-0.562 -17.156)" fill="#0d0d0d"/>
      <path id="Path_1037" data-name="Path 1037" d="M20.373,16.716c-.239,2.977-3.338,3.459-3.338,3.459,2.663.115,3.34,3.6,3.34,3.6.047-2.49,3.413-3.668,3.413-3.668C21.262,19.97,20.373,16.716,20.373,16.716Z" transform="translate(-1.515 -1.151)" fill="#fd0"/>
      <path id="Path_1038" data-name="Path 1038" d="M22.864,18.613c-2.1-.118-2.912-2.966-2.92-3a.546.546,0,0,0-1.07.1A3.418,3.418,0,0,1,16,18.682a.546.546,0,0,0,.06,1.084c2.2.095,2.822,3.134,2.828,3.163a.546.546,0,0,0,.535.442l.048,0a.545.545,0,0,0,.5-.533c.039-2.077,3.019-3.153,3.048-3.163a.546.546,0,0,0-.15-1.06ZM19.386,21.1a4.664,4.664,0,0,0-1.625-1.914,4.35,4.35,0,0,0,1.765-1.8,4.872,4.872,0,0,0,1.805,1.894A5.7,5.7,0,0,0,19.386,21.1Z" transform="translate(-0.56 -0.197)" fill="#0d0d0d"/>
      <path id="Path_1039" data-name="Path 1039" d="M113.078,18.63a7.625,7.625,0,0,0-5.747-2.216,8.58,8.58,0,0,0-5.756,2.546,18.85,18.85,0,0,0-3.238,4.828A18.863,18.863,0,0,0,95.1,18.96a8.58,8.58,0,0,0-5.756-2.546,7.6,7.6,0,0,0-7.963,7.963,8.579,8.579,0,0,0,2.547,5.756,20.7,20.7,0,0,0,6.9,4.123,12.914,12.914,0,0,0,4.331.888,5.2,5.2,0,0,0,3.178-.932,5.2,5.2,0,0,0,3.178.932,12.916,12.916,0,0,0,4.331-.888,20.685,20.685,0,0,0,6.9-4.123,8.58,8.58,0,0,0,2.547-5.756,7.635,7.635,0,0,0-2.217-5.747Zm-16.5,12.015a1.219,1.219,0,0,1-.267.7c-.415.415-1.933.471-4.286-.385A17.175,17.175,0,0,1,86.4,27.654a5.087,5.087,0,0,1-1.522-3.405,4.088,4.088,0,0,1,4.159-4.335c.057,0,.115,0,.173,0a5.086,5.086,0,0,1,3.405,1.522,17.179,17.179,0,0,1,3.308,5.622,10.88,10.88,0,0,1,.653,2.672A7.872,7.872,0,0,0,96.579,30.645Zm13.69-2.991a17.181,17.181,0,0,1-5.622,3.308c-2.353.856-3.871.8-4.286.385a1.217,1.217,0,0,1-.267-.7,7.948,7.948,0,0,0,0-.912,10.88,10.88,0,0,1,.653-2.672,17.175,17.175,0,0,1,3.308-5.622,5.086,5.086,0,0,1,3.405-1.522c.057,0,.115,0,.172,0a4.088,4.088,0,0,1,4.159,4.335,5.088,5.088,0,0,1-1.522,3.405Z" transform="translate(-42.448 -0.955)" fill="#fd0"/>
      <path id="Path_1040" data-name="Path 1040" d="M106.675,18.413c-.064,0-.127,0-.193,0a5.631,5.631,0,0,0-3.771,1.682,17.771,17.771,0,0,0-3.435,5.821,11.383,11.383,0,0,0-.684,2.81.572.572,0,0,0,0,.079,7.432,7.432,0,0,1,0,.849.537.537,0,0,0,0,.1,1.716,1.716,0,0,0,.422,1.018,2.153,2.153,0,0,0,1.532.451,10.24,10.24,0,0,0,3.327-.709,17.768,17.768,0,0,0,5.821-3.435,5.629,5.629,0,0,0,1.681-3.771,4.634,4.634,0,0,0-4.7-4.9Zm2.252,7.9a16.58,16.58,0,0,1-5.423,3.181c-2.323.845-3.536.67-3.713.513a.8.8,0,0,1-.106-.339,8.437,8.437,0,0,0,0-.878,10.555,10.555,0,0,1,.619-2.5,16.581,16.581,0,0,1,3.181-5.423,4.544,4.544,0,0,1,3.038-1.363,3.548,3.548,0,0,1,3.768,3.767A4.542,4.542,0,0,1,108.927,26.314ZM96.168,28.729a11.386,11.386,0,0,0-.684-2.81A17.768,17.768,0,0,0,92.049,20.1a5.634,5.634,0,0,0-3.773-1.682,4.639,4.639,0,0,0-4.9,4.9,5.63,5.63,0,0,0,1.681,3.771,17.77,17.77,0,0,0,5.821,3.435,10.244,10.244,0,0,0,3.327.709,2.153,2.153,0,0,0,1.532-.451,1.716,1.716,0,0,0,.422-1.018.537.537,0,0,0,0-.1,7.43,7.43,0,0,1,0-.849A.473.473,0,0,0,96.168,28.729Zm-1.093.938a.814.814,0,0,1-.1.338c-.179.159-1.391.335-3.714-.511a16.58,16.58,0,0,1-5.423-3.181,4.543,4.543,0,0,1-1.362-3.04,3.543,3.543,0,0,1,3.614-3.77l.152,0a4.543,4.543,0,0,1,3.04,1.363,16.58,16.58,0,0,1,3.181,5.423,10.559,10.559,0,0,1,.619,2.5,8.533,8.533,0,0,0,0,.878Zm17.432-12.378a8.164,8.164,0,0,0-6.153-2.376,9.121,9.121,0,0,0-6.122,2.706,17.916,17.916,0,0,0-2.852,4.018,17.916,17.916,0,0,0-2.852-4.018,9.123,9.123,0,0,0-6.122-2.706,8.143,8.143,0,0,0-8.529,8.529,9.127,9.127,0,0,0,2.706,6.122,21.281,21.281,0,0,0,7.1,4.25c3.253,1.184,5.9,1.224,7.7.1a5.913,5.913,0,0,0,3.178.818,13.464,13.464,0,0,0,4.518-.92,21.283,21.283,0,0,0,7.1-4.25,9.126,9.126,0,0,0,2.706-6.122,8.169,8.169,0,0,0-2.375-6.153Zm-1.1,11.5a20.1,20.1,0,0,1-6.7,4c-3.072,1.118-5.507,1.14-7,.031a.546.546,0,0,0-.652,0c-1.489,1.11-3.925,1.087-7-.031a20.11,20.11,0,0,1-6.7-4,8.037,8.037,0,0,1-2.387-5.39,7.052,7.052,0,0,1,7.4-7.4,8.034,8.034,0,0,1,5.39,2.387,18.409,18.409,0,0,1,3.133,4.68.546.546,0,0,0,.982,0A18.409,18.409,0,0,1,101,18.391,8.036,8.036,0,0,1,106.395,16a7.052,7.052,0,0,1,7.4,7.4,8.038,8.038,0,0,1-2.387,5.39Z" transform="translate(-41.492 0)" fill="#3a312a"/>
      <path id="Path_1041" data-name="Path 1041" d="M77.01,91.763v23.858a2.108,2.108,0,0,0,2.108,2.108H112a2.108,2.108,0,0,0,2.108-2.108V91.763Z" transform="translate(-39.671 -48.896)" fill="#4a57c7"/>
      <path id="Path_1042" data-name="Path 1042" d="M113.156,90.263h-37.1a.545.545,0,0,0-.546.546v23.858a2.656,2.656,0,0,0,2.654,2.653h32.884a2.656,2.656,0,0,0,2.654-2.653V90.809A.546.546,0,0,0,113.156,90.263Zm-.546,24.4a1.564,1.564,0,0,1-1.562,1.562H78.164a1.564,1.564,0,0,1-1.562-1.562V91.354h36.008v23.312Z" transform="translate(-38.717 -47.942)" fill="#3a312a"/>
      <path id="Path_1043" data-name="Path 1043" d="M109.432,65.137H69.683a2.108,2.108,0,0,0-2.108,2.108v5.471a2.108,2.108,0,0,0,2.108,2.108h39.749a2.108,2.108,0,0,0,2.108-2.108V67.244A2.108,2.108,0,0,0,109.432,65.137Z" transform="translate(-33.669 -31.956)" fill="#4a57c7"/>
      <path id="Path_1044" data-name="Path 1044" d="M108.478,63.637H68.729a2.656,2.656,0,0,0-2.654,2.654v5.471a2.656,2.656,0,0,0,2.654,2.654h39.749a2.657,2.657,0,0,0,2.654-2.654V66.291A2.657,2.657,0,0,0,108.478,63.637Zm1.562,8.124a1.564,1.564,0,0,1-1.562,1.562H68.729a1.564,1.564,0,0,1-1.562-1.562V66.291a1.564,1.564,0,0,1,1.562-1.562h39.749a1.564,1.564,0,0,1,1.562,1.562Z" transform="translate(-32.714 -31.002)" fill="#3a312a"/>
      <path id="Path_1045" data-name="Path 1045" d="M122.379,65.137v35.652h4.09V65.137Z" transform="translate(-68.535 -31.956)" fill="#fd0"/>
      <path id="Path_1046" data-name="Path 1046" d="M125.514,82.263a.545.545,0,0,0,.546-.546V64.183a.545.545,0,0,0-.546-.546h-4.09a.545.545,0,0,0-.546.546V99.835a.545.545,0,0,0,.546.546h4.09a.545.545,0,0,0,.546-.546V86.908a.546.546,0,1,0-1.091,0V99.289h-3V64.728h3V81.717A.545.545,0,0,0,125.514,82.263Z" transform="translate(-67.581 -31.002)" fill="#3a312a"/>
    </g>
  </g>
</svg>
